<?xml version="1.0" encoding="UTF-8" standalone="no"?><!DOCTYPE svg PUBLIC "-//W3C//DTD SVG 1.1//EN" "http://www.w3.org/Graphics/SVG/1.1/DTD/svg11.dtd"><svg width="100%" height="100%" viewBox="0 0 553 219" version="1.1" xmlns="http://www.w3.org/2000/svg" xmlns:xlink="http://www.w3.org/1999/xlink" xml:space="preserve" xmlns:serif="http://www.serif.com/" style="fill-rule:evenodd;clip-rule:evenodd;stroke-linejoin:round;stroke-miterlimit:2;"><path d="M185.045,126.734c-0.183,-3.487 -0.779,-6.887 -1.791,-10.196c-1.009,-3.304 -2.571,-6.237 -4.684,-8.812c-2.112,-2.571 -4.779,-4.688 -7.991,-6.338c-3.213,-1.654 -7.209,-2.483 -11.984,-2.483c-4.591,0 -8.537,0.787 -11.845,2.342c-3.305,1.566 -6.059,3.633 -8.263,6.2c-2.204,2.575 -3.904,5.558 -5.1,8.958c-1.196,3.4 -2.067,6.842 -2.617,10.329l54.275,0Zm-96.429,15.704c0,-12.858 1.975,-24.108 5.925,-33.75c3.95,-9.641 9.138,-17.675 15.567,-24.104c6.429,-6.429 13.821,-11.3 22.179,-14.604c8.354,-3.308 16.946,-4.958 25.763,-4.958c20.566,0 36.82,6.291 48.762,18.87c11.938,12.584 17.904,31.088 17.904,55.517c0,2.388 -0.091,5 -0.271,7.846c-0.187,2.85 -0.37,5.371 -0.55,7.583l-93.125,0c0.917,8.442 4.863,15.15 11.846,20.113c6.979,4.954 16.346,7.433 28.104,7.433c7.53,0 14.921,-0.692 22.18,-2.071c7.254,-1.371 13.175,-3.071 17.77,-5.091l5.509,33.337c-2.209,1.1 -5.142,2.204 -8.817,3.304c-3.675,1.1 -7.762,2.071 -12.262,2.892c-4.5,0.829 -9.321,1.521 -14.463,2.071c-5.142,0.55 -10.287,0.821 -15.425,0.821c-13.05,0 -24.383,-1.93 -34.025,-5.784c-9.646,-3.854 -17.633,-9.137 -23.971,-15.841c-6.341,-6.7 -11.021,-14.646 -14.05,-23.834c-3.033,-9.175 -4.55,-19.1 -4.55,-29.75" style="fill:#131313;fill-rule:nonzero;"/><path d="M259.16,73.837c6.975,-2.017 15.98,-3.9 26.996,-5.65c11.025,-1.742 22.596,-2.617 34.717,-2.617c12.304,0 22.546,1.613 30.721,4.825c8.171,3.213 14.646,7.759 19.421,13.638c4.775,5.879 8.166,12.858 10.187,20.937c2.021,8.084 3.033,17.08 3.033,26.992l0,81.833l-41.045,0l0,-76.866c0,-13.225 -1.746,-22.592 -5.234,-28.1c-3.491,-5.513 -10.016,-8.267 -19.562,-8.267c-2.942,0 -6.059,0.138 -9.367,0.413c-3.308,0.275 -6.25,0.6 -8.817,0.966l0,111.854l-41.05,0l0,-139.958Z" style="fill:#131313;fill-rule:nonzero;"/><path d="M459.173,140.229c0,12.675 2.842,22.871 8.533,30.588c5.696,7.704 14.15,11.566 25.346,11.566c3.675,0 7.075,-0.137 10.2,-0.408c3.121,-0.279 5.692,-0.6 7.713,-0.971l0,-74.658c-2.571,-1.65 -5.925,-3.029 -10.055,-4.133c-4.133,-1.1 -8.316,-1.65 -12.537,-1.65c-19.467,0 -29.2,13.225 -29.2,39.666m92.846,68.884c-3.679,1.1 -7.904,2.158 -12.675,3.162c-4.784,1.008 -9.779,1.879 -15.021,2.621c-5.233,0.729 -10.554,1.329 -15.971,1.792c-5.425,0.45 -10.608,0.687 -15.571,0.687c-11.946,0 -22.591,-1.75 -31.958,-5.233c-9.367,-3.492 -17.271,-8.496 -23.696,-15.017c-6.429,-6.517 -11.337,-14.421 -14.737,-23.696c-3.405,-9.275 -5.096,-19.7 -5.096,-31.271c0,-11.745 1.462,-22.354 4.404,-31.816c2.942,-9.459 7.167,-17.496 12.679,-24.109c5.504,-6.612 12.258,-11.662 20.25,-15.154c7.988,-3.483 17.125,-5.233 27.408,-5.233c5.696,0 10.788,0.55 15.292,1.654c4.5,1.104 9.046,2.667 13.638,4.683l0,-65.566l41.054,-6.617l0,209.113Z" style="fill:#131313;fill-rule:nonzero;"/><path d="M59.433,188.86c0,16.412 -13.304,29.717 -29.716,29.717c-16.413,0 -29.717,-13.305 -29.717,-29.717c0,-16.413 13.304,-29.717 29.717,-29.717c16.412,0 29.716,13.304 29.716,29.717" style="fill:#1f42ba;fill-rule:nonzero;"/></svg>